<?xml version="1.0" encoding="UTF-8"?>
<svg xmlns="http://www.w3.org/2000/svg" 
     viewBox="0 0 73 70" 
     width="73" 
     height="70"
     role="img"
     aria-labelledby="aavesh-logo-title">
  <title id="aavesh-logo-title">Aavesh Logo</title>
  <defs>
    <style>
      .logo-background { fill: #000000; }
      .logo-text { fill: #ffffff; }
    </style>
  </defs>
  
  <!-- Background -->
  <rect width="73" height="70" class="logo-background" rx="4" ry="4"/>
  
  <!-- Letter A Design -->
  <g class="logo-text" transform="translate(36.5, 50)">
    <path d="M9.4 19c5.3-10.5 9.6-19.4 9.6-19.7 0-0.4-1.3-0.7-3-0.7-2.8 0-3.3 0.7-9.5 13-3.7 7.2-7 13-7.3 13-0.4-0.1-2.8-4.4-5.4-9.8l-4.6-9.7 7.6-0.3c5.8-0.2 8-0.7 9-1.9 2.9-3.9 1.8-4.3-12.3-4.3-8.4 0-13.5 0.4-13.5 1 0 1.3 19 39.3 19.4 38.9 0.2-0.2 4.7-9 10-19.5z" 
          transform="rotate(180) scale(-1, 1)"/>
  </g>
</svg>
