<?xml version="1.0" encoding="UTF-8" standalone="no" ?>
<!DOCTYPE svg PUBLIC "-//W3C//DTD SVG 1.1//EN" "http://www.w3.org/Graphics/SVG/1.1/DTD/svg11.dtd">
<svg xmlns="http://www.w3.org/2000/svg" xmlns:xlink="http://www.w3.org/1999/xlink" version="1.1" width="1080" height="1080" viewBox="0 0 1080 1080" xml:space="preserve">
<desc>Created with Fabric.js 5.2.4</desc>
<defs>
</defs>
<rect x="0" y="0" width="100%" height="100%" fill="transparent"></rect>
<g transform="matrix(1 0 0 1 540 540)" id="0be51b72-02f1-4a74-bf6a-4d0f625f95eb"  >
<rect style="stroke: none; stroke-width: 1; stroke-dasharray: none; stroke-linecap: butt; stroke-dashoffset: 0; stroke-linejoin: miter; stroke-miterlimit: 4; fill: rgb(255,255,255); fill-rule: nonzero; opacity: 1; visibility: hidden;" vector-effect="non-scaling-stroke"  x="-540" y="-540" rx="0" ry="0" width="1080" height="1080" />
</g>
<g transform="matrix(1 0 0 1 540 540)" id="fa20655f-8293-4e63-ab39-29fc6c7399eb"  >
</g>
<g transform="matrix(1 0 0 1 50 50)"  >
<rect style="stroke: none; stroke-width: 1; stroke-dasharray: none; stroke-linecap: butt; stroke-dashoffset: 0; stroke-linejoin: miter; stroke-miterlimit: 4; fill: rgb(255,255,255); fill-opacity: 0; fill-rule: nonzero; opacity: 1;" vector-effect="non-scaling-stroke"  x="-50" y="-50" rx="0" ry="0" width="100" height="100" />
</g>
<g transform="matrix(1 0 0 1 540 540)"  >
<rect style="stroke: none; stroke-width: 1; stroke-dasharray: none; stroke-linecap: butt; stroke-dashoffset: 0; stroke-linejoin: miter; stroke-miterlimit: 4; fill: rgb(255,255,255); fill-rule: nonzero; opacity: 1; visibility: hidden;" vector-effect="non-scaling-stroke"  x="-540" y="-540" rx="0" ry="0" width="1080" height="1080" />
</g>
<g transform="matrix(0.55 0 0 0.55 740 631.99)" style=""  >
		<text xml:space="preserve" font-family="Alegreya" font-size="80" font-style="normal" font-weight="700" style="stroke: none; stroke-width: 1; stroke-dasharray: none; stroke-linecap: butt; stroke-dashoffset: 0; stroke-linejoin: miter; stroke-miterlimit: 4; fill: rgb(255,255,255); fill-rule: nonzero; opacity: 1; white-space: pre;" ><tspan x="-152.8" y="25.13" >IIIT UNA</tspan></text>
</g>
<g transform="matrix(0.32 0 0 0.32 803.3 416.78)"  >
<rect style="stroke: none; stroke-width: 1; stroke-dasharray: none; stroke-linecap: butt; stroke-dashoffset: 0; stroke-linejoin: miter; stroke-miterlimit: 4; fill: rgb(255,255,255); fill-rule: nonzero; opacity: 1;" vector-effect="non-scaling-stroke"  x="-666.665" y="-14.185" rx="0" ry="0" width="1333.33" height="28.37" />
</g>
<g transform="matrix(0.32 0 0 0.32 318.14 634.7)"  >
<rect style="stroke: none; stroke-width: 1; stroke-dasharray: none; stroke-linecap: butt; stroke-dashoffset: 0; stroke-linejoin: miter; stroke-miterlimit: 4; fill: rgb(255,255,255); fill-rule: nonzero; opacity: 1;" vector-effect="non-scaling-stroke"  x="-670.215" y="-14.185" rx="0" ry="0" width="1340.43" height="28.37" />
</g>
<g transform="matrix(0.32 0 0 0.32 561.04 633.35)"  >
<circle style="stroke: none; stroke-width: 1; stroke-dasharray: none; stroke-linecap: butt; stroke-dashoffset: 0; stroke-linejoin: miter; stroke-miterlimit: 4; fill: rgb(255,255,255); fill-rule: nonzero; opacity: 1;" vector-effect="non-scaling-stroke"  cx="0" cy="0" r="74.4681" />
</g>
<g transform="matrix(0.32 0 0 0.32 561.16 633.47)"  >
<circle style="stroke: none; stroke-width: 1; stroke-dasharray: none; stroke-linecap: butt; stroke-dashoffset: 0; stroke-linejoin: miter; stroke-miterlimit: 4; fill: rgb(0,0,0); fill-rule: nonzero; opacity: 1;" vector-effect="non-scaling-stroke"  cx="0" cy="0" r="39.0071" />
</g>
<g transform="matrix(0.32 0 0 0.32 567.93 417.72)"  >
<circle style="stroke: none; stroke-width: 1; stroke-dasharray: none; stroke-linecap: butt; stroke-dashoffset: 0; stroke-linejoin: miter; stroke-miterlimit: 4; fill: rgb(255,255,255); fill-rule: nonzero; opacity: 1;" vector-effect="non-scaling-stroke"  cx="0" cy="0" r="74.4681" />
</g>
<g transform="matrix(0.32 0 0 0.32 568.05 417.84)"  >
<circle style="stroke: none; stroke-width: 1; stroke-dasharray: none; stroke-linecap: butt; stroke-dashoffset: 0; stroke-linejoin: miter; stroke-miterlimit: 4; fill: rgb(0,0,0); fill-rule: nonzero; opacity: 1;" vector-effect="non-scaling-stroke"  cx="0" cy="0" r="39.0071" />
</g>
<g transform="matrix(0.32 0 0 0.32 219.9 517)"  >
<path style="stroke: none; stroke-width: 1; stroke-dasharray: none; stroke-linecap: butt; stroke-dashoffset: 0; stroke-linejoin: miter; stroke-miterlimit: 4; fill: rgb(255,255,255); fill-rule: nonzero; opacity: 1;" vector-effect="non-scaling-stroke"  transform=" translate(-361.7, -489.36)" d="M 358.156 269.504 L 581.56 709.22 L 503.546 709.22 L 358.156 418.44 L 248.227 645.39 L 418.44 645.39 L 453.901 709.22 L 141.844 709.22 L 358.156 269.504 Z" stroke-linecap="round" />
</g>
<g transform="matrix(0.32 0 0 0.32 373.6 517)"  >
<path style="stroke: none; stroke-width: 1; stroke-dasharray: none; stroke-linecap: butt; stroke-dashoffset: 0; stroke-linejoin: miter; stroke-miterlimit: 4; fill: rgb(28,155,178); fill-rule: nonzero; opacity: 1;" vector-effect="non-scaling-stroke"  transform=" translate(-836.88, -489.36)" d="M 833.333 269.504 L 1056.74 709.22 L 978.723 709.22 L 833.333 418.44 L 723.404 645.39 L 893.617 645.39 L 929.078 709.22 L 617.021 709.22 L 833.333 269.504 Z" stroke-linecap="round" />
</g>
<g transform="matrix(0.32 0 0 0.32 496.33 528.47)"  >
<path style="stroke: none; stroke-width: 1; stroke-dasharray: none; stroke-linecap: butt; stroke-dashoffset: 0; stroke-linejoin: miter; stroke-miterlimit: 4; fill: rgb(255,255,255); fill-rule: nonzero; opacity: 1;" vector-effect="non-scaling-stroke"  transform=" translate(-1216.31, -524.82)" d="M 1216.31 744.681 L 1000 304.965 L 1078.01 304.965 L 1216.31 602.837 L 1361.7 304.965 L 1432.62 304.965 L 1216.31 744.681 Z" stroke-linecap="round" />
</g>
<g transform="matrix(0.32 0 0 0.32 637.61 522.78)"  >
<path style="stroke: none; stroke-width: 1; stroke-dasharray: none; stroke-linecap: butt; stroke-dashoffset: 0; stroke-linejoin: miter; stroke-miterlimit: 4; fill: rgb(28,155,178); fill-rule: nonzero; opacity: 1;" vector-effect="non-scaling-stroke"  transform=" translate(-1652.48, -507.09)" d="M 1496.45 716.312 L 1496.45 297.872 L 1808.51 297.872 L 1808.51 368.794 L 1567.38 368.794 L 1567.38 645.39 L 1808.51 645.39 L 1808.51 716.312 L 1496.45 716.312 Z" stroke-linecap="round" />
</g>
<g transform="matrix(0.32 0 0 0.32 896.87 522.78)"  >
<path style="stroke: none; stroke-width: 1; stroke-dasharray: none; stroke-linecap: butt; stroke-dashoffset: 0; stroke-linejoin: miter; stroke-miterlimit: 4; fill: rgb(28,155,178); fill-rule: nonzero; opacity: 1;" vector-effect="non-scaling-stroke"  transform=" translate(-2453.9, -507.09)" d="M 2312.06 716.312 L 2312.06 297.872 L 2390.07 297.872 L 2390.07 482.269 L 2595.74 482.269 L 2595.74 553.191 L 2390.07 553.191 L 2390.07 716.312 L 2312.06 716.312 Z" stroke-linecap="round" />
</g>
<g transform="matrix(0.32 0 0 0.32 652.7 526.82)"  >
<rect style="stroke: none; stroke-width: 1; stroke-dasharray: none; stroke-linecap: butt; stroke-dashoffset: 0; stroke-linejoin: miter; stroke-miterlimit: 4; fill: rgb(28,155,178); fill-rule: nonzero; opacity: 1;" vector-effect="non-scaling-stroke"  x="-102.835" y="-35.46" rx="0" ry="0" width="205.67" height="70.92" />
</g>
<g transform="matrix(0.32 0 0 0.32 963.75 522.78)"  >
<path style="stroke: none; stroke-width: 1; stroke-dasharray: none; stroke-linecap: butt; stroke-dashoffset: 0; stroke-linejoin: miter; stroke-miterlimit: 4; fill: rgb(28,155,178); fill-rule: nonzero; opacity: 1;" vector-effect="non-scaling-stroke"  transform=" translate(-2659.57, -507.09)" d="M 2624.11 297.872 L 2695.04 297.872 L 2695.04 716.312 L 2624.11 716.312 L 2624.11 297.872 Z" stroke-linecap="round" />
</g>
<g transform="matrix(0.32 0 0 0.32 785.68 467.18)"  >
<rect style="stroke: none; stroke-width: 1; stroke-dasharray: none; stroke-linecap: butt; stroke-dashoffset: 0; stroke-linejoin: miter; stroke-miterlimit: 4; fill: rgb(255,255,255); fill-rule: nonzero; opacity: 1;" vector-effect="non-scaling-stroke"  x="-124.115" y="-35.46" rx="0" ry="0" width="248.23" height="70.92" />
</g>
<g transform="matrix(0.32 0 0 0.32 731.98 495.55)"  >
<path style="stroke: none; stroke-width: 1; stroke-dasharray: none; stroke-linecap: butt; stroke-dashoffset: 0; stroke-linejoin: miter; stroke-miterlimit: 4; fill: rgb(255,255,255); fill-rule: evenodd; opacity: 1;" vector-effect="non-scaling-stroke"  transform=" translate(-1943.26, -421.99)" d="M 2007.09 299.599 C 2000.01 298.463 1992.89 297.872 1985.82 297.872 C 1917.27 297.872 1879.43 353.44 1879.43 421.986 C 1879.43 490.532 1935 546.099 2003.55 546.099 C 2004.73 546.099 2005.91 546.083 2007.09 546.05 L 2007.09 468.003 C 1979.37 466.708 1957.45 450.171 1957.45 421.986 C 1957.45 393.801 1979.37 370.735 2007.09 368.911 L 2007.09 299.599 Z" stroke-linecap="round" />
</g>
<g transform="matrix(-0.32 0 0 -0.32 754.41 579.82)"  >
<rect style="stroke: none; stroke-width: 1; stroke-dasharray: none; stroke-linecap: butt; stroke-dashoffset: 0; stroke-linejoin: miter; stroke-miterlimit: 4; fill: rgb(255,255,255); fill-rule: nonzero; opacity: 1;" vector-effect="non-scaling-stroke"  x="-124.115" y="-35.46" rx="0" ry="0" width="248.23" height="70.92" />
</g>
<g transform="matrix(0.32 0 0 0.32 807.67 550.6)"  >
<path style="stroke: none; stroke-width: 1; stroke-dasharray: none; stroke-linecap: butt; stroke-dashoffset: 0; stroke-linejoin: miter; stroke-miterlimit: 4; fill: rgb(255,255,255); fill-rule: evenodd; opacity: 1;" vector-effect="non-scaling-stroke"  transform=" translate(-2177.31, -592.2)" d="M 2113.48 714.585 C 2120.56 715.721 2127.68 716.312 2134.75 716.312 C 2203.3 716.312 2241.13 660.745 2241.13 592.199 C 2241.13 523.653 2185.57 468.085 2117.02 468.085 C 2115.84 468.085 2114.65 468.102 2113.48 468.135 L 2113.48 546.182 C 2141.2 547.477 2163.12 564.013 2163.12 592.199 C 2163.12 620.384 2141.2 643.449 2113.48 645.274 L 2113.48 714.585 Z" stroke-linecap="round" />
</g>
</svg>